<svg width="200" height="246" viewBox="0 0 200 246" fill="none" xmlns="http://www.w3.org/2000/svg">
<path fill-rule="evenodd" clip-rule="evenodd" d="M0 23.8524V86.8963C0 158.26 36.5638 217.202 97.8048 244.564L100.157 245.614L102.509 244.564C163.555 217.29 200 158.351 200 86.8963V23.8161L98.3622 0L0 23.8524Z" fill="#DE554B"/>
<path fill-rule="evenodd" clip-rule="evenodd" d="M165.404 145.336L165.129 145.223C147.472 137.909 133.438 144.37 124.522 151.447C128.889 140.306 129.963 130.279 130.156 128.038C131.512 125.308 133.371 123.649 135.83 122.968C142.406 121.144 150.966 126.828 151.05 126.885L153.354 128.432L166.911 94.9463L124.541 53.7559L90.911 57.5847C90.1747 57.6995 89.4477 57.8369 88.7203 57.9767C82.2144 49.5644 73.9849 42.6483 64.4693 38.6537L99.9029 30.2457L174.185 47.8669L174.904 92.9597C174.904 111.707 171.615 129.356 165.404 145.336ZM100.13 97.726C101.348 110.674 99.8939 141.935 60.4393 153.332L40.1738 117.57C41.7661 101.342 49.3074 86.9615 60.5872 76.7931L60.9716 77.3061C70.6786 90.2542 70.6965 103.977 61.0212 115.949L59.6127 117.692L63.1118 120.495L64.5203 118.753C75.6027 105.039 75.6206 89.369 64.5699 74.6303L64.0262 73.9062C70.7027 68.7252 78.473 64.93 86.9571 62.9178C94.0676 72.7646 98.9223 84.8955 100.13 97.726ZM135.095 70.6641C130.337 74.5368 124.417 79.3569 125.711 100.557C126.533 114.077 125.885 124.802 125.741 126.876L125.734 126.893L125.711 127.319C125.702 127.459 124.828 141.419 118.124 155.167C109.473 172.907 95.5612 181.973 76.7608 182.132L62.7004 157.322C91.6757 148.535 107.32 126.207 104.601 97.3089C103.478 85.3877 98.8821 72.7598 91.6309 62.0015L122.931 58.4391L135.341 70.503C135.257 70.554 135.173 70.6003 135.095 70.6641ZM144.263 94.5037C148.56 94.584 152.102 91.2276 152.285 86.9766L161.624 96.054L151.204 121.785C147.674 119.893 140.805 116.95 134.642 118.658C133.124 119.076 131.753 119.747 130.524 120.65C130.665 115.732 130.698 108.577 130.192 100.286C129.038 81.3705 133.563 77.6877 137.936 74.1268C138.15 73.9525 138.314 73.7451 138.446 73.5217L152.089 86.7844L136.517 86.492C136.436 90.8356 139.903 94.4216 144.263 94.5037ZM99.9236 214.752C53.402 193.245 25.6958 147.869 25.6958 92.9592V47.8546L56.1529 40.6272C66.5797 43.2356 76.3031 49.9116 83.9687 59.0782C57.5987 66.2312 38.1234 89.4819 35.6375 117.866L35.5761 118.556L74.1285 186.582L75.4185 186.6C75.7014 186.603 75.9739 186.605 76.2536 186.605C95.6178 186.605 108.068 177.819 116.059 167.028L116.284 167.171L117.495 165.293C117.542 165.223 122.113 158.216 130.104 152.803C140.585 145.701 151.791 144.543 163.404 149.35L163.709 149.475C151.406 178.192 129.408 201.133 99.9236 214.752ZM99.9029 21.0521L16.7162 40.7911V92.9597C16.7162 152.22 47.1389 201.113 98.0948 223.749L99.9236 224.561L101.753 223.749C153.18 200.903 183.884 152.011 183.884 92.8879L183.054 40.7792L99.9029 21.0521Z" fill="#FEB447"/>
</svg>
