<svg width="200" height="253" viewBox="0 0 200 253" fill="none" xmlns="http://www.w3.org/2000/svg">
<path fill-rule="evenodd" clip-rule="evenodd" d="M199.739 24.7632L192.269 27.4947C191.541 27.7596 174.211 33.8119 150.768 17.6857C117.518 -5.18816 82.159 -5.89447 51.2167 15.6857C29.3608 30.9326 7.18059 27.2623 6.97699 27.2263L0.472484 26.0371L0.310321 32.6803C0.207618 36.9434 -2.08968 137.394 7.56438 164.916C20.9103 202.967 43.5644 215.327 65.4707 227.279C76.6419 233.372 87.1969 239.131 96.2563 248.235L100.256 252.253L104.256 248.235C113.28 239.172 123.602 233.437 134.534 227.365C156.047 215.414 178.296 203.055 191.669 164.916C201.316 137.421 199.963 36.9938 199.903 32.7326L199.739 24.7632Z" fill="#FCB542"/>
<path fill-rule="evenodd" clip-rule="evenodd" d="M168.067 145.939C166.549 141.491 164.391 137.287 161.664 133.46C156.757 126.53 146.516 116 127.786 111.499C136.943 109.124 144.065 103.543 144.918 88.7659L145.11 85.4128L141.979 86.4434C141.858 86.4794 129.298 89.8434 100.651 71.4164C93.6293 66.8632 82.5428 63.3497 71.6869 66.4308C71.8016 65.8109 71.8601 65.1819 71.8617 64.5515C71.8617 58.8434 67.3121 54.2001 61.7229 54.2001C56.1301 54.2001 51.5824 58.8434 51.5824 64.5515C51.5824 69.1101 54.4851 72.9803 58.5013 74.3569C53.7734 79.1335 50.0202 85.6938 47.4292 93.8632C46.7864 95.878 46.2713 97.9313 45.8869 100.011L45.5536 100.847C35.0526 127.204 41.995 141.818 47.0635 152.487C51.5265 161.878 54.2887 167.748 45.2076 177.546C40.8581 171.714 36.9842 164.508 33.7734 155.207C27.5391 137.153 27.4076 73.6092 27.5175 54.3046C34.8454 55.22 48.15 54.6614 63.7392 43.7659C75.359 35.647 87.8401 31.1713 99.8455 30.8181C111.851 31.1713 124.332 35.647 135.954 43.7659C151.543 54.6632 164.846 55.2218 172.173 54.3046C172.271 71.0776 172.181 121.224 168.067 145.939ZM123.436 201.993C119.804 204.043 116.127 206.132 112.485 208.429C118.274 192.699 116.071 175.101 110.483 165.096C106.159 157.353 98.0923 151.029 86.5193 146.287C85.0599 143.645 79.7283 133.074 82.822 124.917C84.4437 120.638 88.2869 117.595 94.2401 115.874C98.0347 114.777 102.139 114.245 106.276 113.892V113.932H108.528C137.898 113.932 152.139 127.852 158.015 136.152C162.905 143.054 165.166 150.218 165.624 156.025C155.826 183.692 140.089 192.589 123.436 201.993ZM93.013 111.452C85.6257 113.588 80.7842 117.561 78.622 123.258C75.8581 130.55 78.2581 138.879 80.4635 144.128C67.5265 139.126 57.9373 131.418 53.1716 122.096C50.9013 117.645 49.7842 112.863 49.7391 107.815C50.6545 98.6362 54.3806 92.2848 60.8437 88.9623C69.595 84.4578 80.604 86.7749 85.6184 89.8632C113.676 107.119 138.361 95.3083 139.397 94.7948L139.487 94.7515C136.195 107.292 125.206 108.016 111.739 108.888C105.491 109.292 99.0311 109.71 93.013 111.449V111.452ZM71.0815 71.447C74.1265 70.3281 77.2256 69.8524 80.2491 69.8524C87.15 69.8524 93.6653 72.3281 98.2473 75.301C116.889 87.292 129.247 90.5299 136.251 91.1659C132.725 92.5713 121.674 96.22 107.642 93.6164C108.258 88.7785 105.033 84.2722 100.282 83.4488C96.55 82.8001 92.9716 84.62 91.1283 87.7443C90.0501 87.169 88.989 86.5621 87.9464 85.9245C81.0563 81.6866 68.5049 79.874 58.8184 84.856C57.5229 85.5227 56.1554 86.3875 54.8004 87.4866C58.7608 79.3641 64.213 73.9749 71.0815 71.447ZM61.7247 70.3046C58.6148 70.3046 56.0869 67.7227 56.0869 64.5497C56.0869 61.3785 58.6148 58.7947 61.7247 58.7947C64.8328 58.7947 67.3608 61.3767 67.3608 64.5497C67.3608 67.7227 64.8328 70.3046 61.7247 70.3046ZM76.2653 201.989C66.1608 196.285 56.3932 190.764 48.0851 181.134C59.7932 168.752 55.7608 160.258 51.1157 150.479C47.0563 141.928 42.1842 131.661 45.9013 114.795C46.5537 118.072 47.6573 121.244 49.1806 124.218C55.1085 135.815 67.5338 145.065 84.1788 150.272C95.1482 154.652 102.683 160.406 106.575 167.371C112.31 177.642 113.988 197.791 105.137 213.48C103.315 214.852 101.553 216.303 99.8563 217.827C92.3914 211.09 84.2112 206.474 76.2653 201.989ZM181.002 42.1208L175.051 44.3371C174.456 44.5569 160.253 49.6055 141.038 36.1785C127.954 27.0325 113.754 22.0001 99.9752 21.6253L99.8383 21.6235L99.7176 21.6271C85.941 22.0019 71.741 27.0343 58.6545 36.1803C39.4454 49.6037 25.2346 44.5587 24.6779 44.3497L18.6562 41.9929L18.5607 48.5731C18.5121 52.1118 17.4076 135.456 25.2815 158.263C36.195 189.878 54.35 200.125 71.9067 210.036C80.8437 215.081 89.2869 219.845 96.6707 227.384L99.8563 230.633L103.04 227.384C110.424 219.845 118.862 215.083 127.797 210.038C145.35 200.126 163.498 189.879 174.413 158.263C182.287 135.456 181.182 52.1118 181.134 48.5731L181.002 42.1226V42.1208Z" fill="#212028"/>
</svg>
