<svg width="200" height="251" viewBox="0 0 200 251" fill="none" xmlns="http://www.w3.org/2000/svg">
<path fill-rule="evenodd" clip-rule="evenodd" d="M199.802 25.2676L193.494 26.1099C192.994 26.1798 143.457 32.3999 103.355 2.77227L99.5991 0L96.1692 3.1701C63.5811 33.3121 7.28448 26.1852 6.7182 26.1117L0.46401 25.2658L0.311687 31.5989C0.207749 35.8549 -2.09143 136.176 7.56224 163.663C20.9093 201.663 43.5623 214.006 65.4699 225.945C76.6432 232.029 87.1983 237.779 96.2588 246.872L100.257 250.884L104.255 246.872C113.281 237.82 123.603 232.093 134.535 226.029C156.048 214.092 178.296 201.75 191.67 163.663C201.315 136.201 199.964 35.9087 199.903 31.6508L199.802 25.2676Z" fill="#265CAA"/>
<path fill-rule="evenodd" clip-rule="evenodd" d="M133.234 196.344C153.52 173.558 156.699 152.027 153.96 133.345C156.964 136.757 160.191 138.556 163.616 138.709C163.766 138.716 163.917 138.719 164.066 138.719C166.865 138.719 169.607 137.554 172.155 135.356C171.338 143.334 170.248 150.004 168.788 154.195C160.501 178.006 147.516 188.065 133.234 196.344ZM101.096 216.653C93.483 209.867 85.021 205.231 76.8028 200.727C64.866 194.184 53.3863 187.889 44.2003 175.365C54.569 180.974 65.1653 183.115 75.0591 183.113C90.4849 183.113 104.198 177.949 112.651 172.766C134.236 159.532 144.14 135.71 144.178 113.545C144.909 115.606 145.613 117.711 146.271 119.858L146.231 119.878L146.384 120.231C153.552 143.934 154.573 172.899 118.347 204.65C112.43 208.046 106.545 211.795 101.096 216.653ZM93.845 67.5022L98.8931 78.5089C98.4989 78.3601 98.1118 78.2239 97.748 78.1021C97.2875 77.948 96.8323 77.7974 96.3986 77.6057C90.2717 74.8908 81.4352 75.4839 75.9444 76.2438L80.1198 69.2315C82.3939 68.676 88.7036 67.2908 93.845 67.5022ZM110.312 168.858C95.9864 177.64 65.5201 186.359 38.6486 166.422C36.7455 162.793 34.9875 158.749 33.4034 154.195C29.7225 143.622 28.3606 117.387 27.9162 93.6426L44.2559 78.982C41.7686 94.4651 42.7345 108.147 47.1429 119.733C52.6444 134.187 61.9397 141.345 68.7691 144.807C83.4315 152.238 100.488 149.437 110.24 137.997C124.141 121.69 115.201 102.83 111.382 94.7787C110.902 93.768 110.504 92.9329 110.253 92.3004C109.486 90.358 108.56 88.482 107.486 86.6913L107.597 86.6375L100.044 70.1706L103.515 73.5951L110.86 65.9647L98.1906 66.1295L97.8412 65.3661L101.841 57.517L123.43 63.4164C127.695 72.7439 133.322 85.5838 135.262 90.0281L135.606 91.0441C136.087 92.4598 136.624 93.9239 137.189 95.4113C144.291 119.806 136.58 152.753 110.312 168.858ZM27.8785 52.933C33.0485 53.2843 41.7614 53.5316 51.9706 52.4331C71.9266 50.288 88.8094 43.8564 101.096 33.7601C113.382 43.8564 130.264 50.288 150.219 52.4331C158.221 53.2897 166.283 53.4576 174.314 52.9348C174.511 65.7658 174.827 101.207 172.838 127.612C170.019 131.919 166.816 134.277 163.811 134.144C159.602 133.958 155.147 128.974 151.271 120.116L150.545 118.455C148.55 111.889 146.138 105.814 143.961 100.327C143.107 98.1933 142.271 96.053 141.452 93.906C141.071 92.5947 140.647 91.2966 140.18 90.0137C139.948 89.46 139.711 88.9087 139.468 88.3597L139.14 87.3956L139.06 87.4242C136.669 81.9406 130.972 68.9968 127.08 60.5259L126.637 59.56L99.497 52.1427L94.0027 62.9308C86.9779 62.6584 78.4658 64.9325 78.0841 65.0382L77.206 65.2765L66.7979 82.7524L71.9589 81.5768C72.1005 81.5464 86.6768 78.2885 94.5904 81.7937C95.1531 82.0428 95.7356 82.2417 96.3269 82.4388C97.1136 82.704 97.8573 82.9531 98.4666 83.3438C101.409 85.2254 104.036 88.9134 106.065 94.0082C106.344 94.7088 106.782 95.6371 107.314 96.7553C111.038 104.615 118.792 120.969 106.823 135.01C98.4236 144.866 83.6053 147.215 70.7905 140.721C47.2289 128.783 44.5605 98.0725 49.9205 73.3138L51.4043 66.4629L27.8212 87.6196C27.6348 72.8532 27.771 59.723 27.8785 52.933ZM183.126 42.7292L178.139 43.4048C177.671 43.4657 131.035 49.4457 104.155 24.3591L101.096 21.5044L98.0347 24.3591C71.2224 49.3848 24.5149 43.4675 24.0543 43.4048L19.0653 42.7292L18.9435 47.8257C18.861 51.3525 16.9704 134.476 24.8894 157.233C35.8298 188.667 54.4758 198.885 72.5073 208.766C81.7308 213.82 90.4419 218.592 97.9039 226.149L101.096 229.38L104.285 226.147C111.751 218.592 120.46 213.82 129.684 208.764C147.715 198.885 166.361 188.667 177.3 157.233C185.222 134.476 183.332 51.3525 183.249 47.8257L183.126 42.7292Z" fill="#F1BA8C"/>
</svg>
