<svg width="200" height="260" viewBox="0 0 200 260" fill="none" xmlns="http://www.w3.org/2000/svg">
<path d="M194.074 35.3704C193.333 35.3704 142.963 35.3704 103.519 3.14815L99.6296 0L95.9259 3.33333C60.5556 36.1111 6.48148 35.3704 6.11111 35.3704L0 35.1852L4.25926 137.037C6.48148 187.222 91.1111 253.889 94.6296 256.667L98.1481 259.259L101.667 256.667C105.37 253.889 192.037 188.148 194.63 135.926L200 35.1852L194.074 35.3704Z" fill="#086C5C"/>
<path d="M86.8519 85.926L90.5556 73.1482L73.3334 82.0371L86.8519 85.926Z" fill="#D3E9F5"/>
<path d="M167.593 134.352C167.407 137.13 166.852 140.093 166.111 143.241C163.889 139.722 160.556 136.574 156.481 134.537C148.889 130.833 140.185 131.204 132.222 136.019L92.9629 163.426C83.5185 169.537 75.5555 173.241 67.2222 162.13C74.074 156.944 98.8889 137.87 120.556 122.87C121.296 122.315 122.222 121.759 122.963 121.019C124.259 120.093 125.556 119.167 126.481 118.426C132.963 114.537 137.407 107.13 138.519 98.7963C139.815 89.1667 136.481 79.7223 129.259 72.3148L129.074 72.1297C114.259 59.3519 102.778 51.9445 102.222 51.5741L101.111 50.8334L59.8148 72.1297L59.6296 73.2408C59.2592 74.9074 58.8889 86.0185 58.8889 90.8334V92.5L66.6666 95.6482C63.8889 96.9445 60.9259 98.426 58.8889 101.204L48.5185 101.019V105.833L56.8518 106.019C56.2963 107.87 56.1111 110.278 56.2963 112.87L56.4815 115.278L61.2963 114.907L61.1111 112.5C60.5555 103.796 64.2592 101.759 70.7407 99.1667L72.9629 98.2408V98.0556L86.1111 103.426L103.333 89.9074C104.259 91.2037 105.37 93.2408 105.185 95.463C105 97.3148 104.074 98.9815 102.037 100.463L45 141.574C41.4815 143.796 36.8518 147.87 33.8889 153.241C30.7407 146.759 29.0741 140.648 28.8889 135.463L25.7407 60.463C38.5185 59.9074 72.5926 56.2037 98.7037 34.1667C126.852 55.463 159.259 59.7223 171.481 60.463L167.593 134.352ZM131.296 195.463C117.778 209.537 104.444 221.019 98.5185 225.648C94.0741 221.944 84.8148 214.352 74.4444 204.352C75.5555 204.537 76.8518 204.537 78.1481 204.537C82.037 204.537 86.2963 203.796 90.5555 202.13C101.111 198.426 129.074 176.944 130.185 176.019L132.037 174.537L129.074 170.833L127.222 172.315C126.852 172.5 98.7037 194.167 88.7037 197.685C80.5555 200.648 73.5185 200.463 67.037 197.13C66.2963 196.389 65.7407 195.833 65 195.093C52.037 181.759 42.4074 169.352 36.2963 158.426C38.5185 150.833 46.6666 145.463 47.2222 145.278L104.259 103.611C107.407 101.204 109.074 98.426 109.444 95.2778C109.815 89.5371 105.185 84.7223 105 84.5371L103.704 83.0556L85.1852 97.6852L63.7037 88.9815C63.8889 83.2408 64.0741 77.5 64.2592 75.0926L101.111 56.3889C104.259 58.6111 114.259 65.2778 126.111 75.6482C132.222 81.9445 135 89.9074 133.889 98.0556C132.963 105.093 129.259 111.019 124.074 114.352C122.963 115.093 121.481 116.204 120.185 117.13C119.444 117.685 118.518 118.426 117.963 118.796C92.7777 136.204 62.9629 159.352 62.7778 159.537L61.1111 160.833L62.2222 162.685C67.5926 171.019 73.5185 173.611 79.074 173.611C85.5555 173.611 91.6666 169.722 95.7407 167.13L135 139.907C143.704 134.722 150.926 136.944 154.444 138.611C159.074 141.019 162.593 145.093 164.074 149.537C158.333 163.056 147.407 178.611 131.296 195.463ZM176.481 50.8334C175.37 50.8334 133.889 50.6482 101.481 23.9815L98.3333 21.3889L95.3703 24.1667C66.1111 51.3889 21.2963 50.8334 20.9259 50.8334L15.9259 50.6482L19.4444 135.648C21.2963 177.5 92.7778 233.056 95.9259 235.463L98.8889 237.685L101.852 235.463C104.815 233.056 175.185 178.241 177.407 134.722L181.852 50.6482L176.481 50.8334Z" fill="#D3E9F5"/>
</svg>
